<svg xmlns="http://www.w3.org/2000/svg" width="35" height="35" viewBox="0 0 35 35"  xmlns:v="https://vecta.io/nano"><path d="M33.168 19.965H19.137c-.773 0-1.398.625-1.398 1.395v4.891c.004.66.469 1.234 1.121 1.367v3.027a4.19 4.19 0 0 0 4.184 4.188h6.215a4.19 4.19 0 0 0 4.188-4.187v-3.027c.637-.133 1.117-.695 1.117-1.367v-4.891c0-.77-.625-1.395-1.395-1.395zm-2.516 10.68c0 .77-.625 1.395-1.395 1.395h-6.211c-.773 0-1.398-.625-1.398-1.395v-2.863h3.211v.559a1.4 1.4 0 0 0 1.398 1.398 1.4 1.4 0 0 0 1.395-1.398v-.559h3zm1.117-5.793H20.535v-2.094H31.77zm0 0" fill="rgb(96.862745%,25.490196%,25.490196%)"/><path d="M26.715 9.098c0-4.926-4.008-8.93-8.93-8.93s-8.934 4.004-8.934 8.93c0 2.891 1.379 5.461 3.516 7.098a17.87 17.87 0 0 0-5.668 3.133A18.02 18.02 0 0 0 .527 29.516c-.262 1.246.051 2.523.852 3.508s1.98 1.543 3.242 1.543h1.887v-.016h8.91a1.37 1.37 0 0 0 1.367-1.367 1.37 1.37 0 0 0-1.367-1.367h-8.91v-.008H4.621c-.43.004-.836-.187-1.102-.523a1.43 1.43 0 0 1-.293-1.207c1.418-6.812 7.391-11.805 14.316-12.055l.242.008c.098 0 .191-.004.289-.008h.078v-.004c4.758-.191 8.566-4.121 8.566-8.922zm-8.93 6.199a6.21 6.21 0 0 1-6.199-6.199 6.21 6.21 0 0 1 6.199-6.195c3.414 0 6.195 2.781 6.195 6.195s-2.777 6.199-6.195 6.199zm0 0" fill="rgb(100%,62.352941%,34.901961%)"/></svg>