<svg width="28" height="28" viewBox="0 0 28 28" fill="none" xmlns="http://www.w3.org/2000/svg">
<path d="M16.5 5.39999C16.5 4.69999 16.2 4.09999 15.8 3.59999C15.3 3.09999 14.7 2.89999 14 2.89999H2.5C1.8 2.89999 1.2 3.19999 0.7 3.59999C0.3 4.09999 0 4.69999 0 5.39999V19.7C0 20.4 0.3 21 0.7 21.5C1.2 22 1.8 22.2 2.5 22.2H3C3.2 22.8 3.5 23.4 4 23.9C5.5 25.4 8.1 25.4 9.6 23.9C10.1 23.4 10.4 22.8 10.6 22.2H17.3C17.5 22.8 17.8 23.4 18.3 23.9C19.1 24.7 20.1 25.1 21.1 25.1C22.2 25.1 23.2 24.7 23.9 23.9C24.4 23.4 24.7 22.8 24.9 22.2H25.4C26.1 22.2 26.7 21.9 27.2 21.5C27.7 21 27.9 20.4 27.9 19.7V13.1C27.9 12.4 27.6 11.8 27.2 11.3L22.3 6.39999C21.8 5.89999 21.2 5.69999 20.5 5.69999H16.5V5.39999ZM16.9 7.99999H20.6C20.7 7.99999 20.8 7.99999 20.8 8.09999L25.7 13C25.8 13.1 25.8 13.1 25.8 13.2V19.8C25.8 19.9 25.8 20 25.7 20C25.6 20 25.5 20 25.5 20H25C24.8 19.4 24.5 18.8 24 18.3C22.5 16.8 19.9 16.8 18.4 18.3C17.9 18.8 17.6 19.4 17.4 20H16.6V8.29999C16.6 8.19999 16.6 8.09999 16.7 8.09999C16.7 7.99999 16.8 7.99999 16.9 7.99999ZM22.9 21.2C22.9 21.7 22.7 22.1 22.4 22.4C21.7 23.1 20.6 23.1 19.9 22.4C19.6 22.1 19.4 21.6 19.4 21.2C19.4 20.7 19.6 20.3 19.9 20C20.2 19.7 20.7 19.5 21.1 19.5C21.5 19.5 22 19.7 22.3 20C22.7 20.3 22.9 20.7 22.9 21.2ZM4 18.3C3.5 18.8 3.2 19.4 3 20H2.5C2.4 20 2.3 20 2.3 19.9C2.2 19.8 2.2 19.8 2.2 19.7V5.39999C2.2 5.29999 2.2 5.19999 2.3 5.19999C2.4 5.09999 2.4 5.09999 2.5 5.09999H14C14.1 5.09999 14.2 5.09999 14.2 5.19999C14.3 5.29999 14.3 5.29999 14.3 5.39999V20H10.6C10.4 19.4 10.1 18.8 9.6 18.3C8.2 16.9 5.5 16.9 4 18.3ZM5.6 19.9C5.9 19.6 6.4 19.4 6.8 19.4C7.3 19.4 7.7 19.6 8 19.9C8.3 20.2 8.5 20.7 8.5 21.1C8.5 21.6 8.3 22 8 22.3C7.4 22.9 6.2 22.9 5.5 22.3C5.2 22 5 21.5 5 21.1C5.1 20.7 5.3 20.3 5.6 19.9Z" fill="#777777"/>
</svg>
