<svg xmlns="http://www.w3.org/2000/svg" width="35" height="35" viewBox="0 0 35 35"  xmlns:v="https://vecta.io/nano"><path d="M30.816 19.066l-.781-3.98c-.215-1.117-.582-1.973-1.133-2.609-.703-.824-1.691-1.258-2.855-1.258h-3.215V5.742a1.37 1.37 0 0 0-1.367-1.367h-4.578a1.37 1.37 0 0 0-1.371 1.367 1.37 1.37 0 0 0 1.371 1.367h3.211v11.902H6.836a1.37 1.37 0 0 0-1.367 1.367 1.37 1.37 0 0 0 1.367 1.367h22.766c.125 0 .246-.02.363-.051a2.6 2.6 0 0 1 2.301 2.578v3.555h-2.969c-.562-1.59-2.086-2.73-3.867-2.73a4.11 4.11 0 0 0-3.867 2.734h-8.469a4.1 4.1 0 0 0-3.863-2.734c-1.785 0-3.301 1.141-3.867 2.73a2.74 2.74 0 0 1-2.629-2.73V7.109h3.215a1.37 1.37 0 0 0 1.367-1.367 1.37 1.37 0 0 0-1.367-1.367H1.367A1.37 1.37 0 0 0 0 5.742v19.352a5.48 5.48 0 0 0 5.359 5.469c.566 1.59 2.086 2.734 3.871 2.734s3.301-1.141 3.863-2.73h8.469c.566 1.59 2.086 2.734 3.867 2.734a4.11 4.11 0 0 0 3.867-2.734h4.336A1.37 1.37 0 0 0 35 29.199v-4.926c0-2.543-1.793-4.68-4.184-5.207zm-7.984-.055v-5.059h3.215c.414 0 .988 0 1.305 1.648l.668 3.41zM9.23 30.563c-.754 0-1.371-.613-1.371-1.367s.617-1.367 1.371-1.367a1.37 1.37 0 0 1 1.367 1.367 1.37 1.37 0 0 1-1.367 1.367zm16.199 0a1.37 1.37 0 0 1-1.367-1.367 1.37 1.37 0 0 1 1.367-1.367 1.37 1.37 0 0 1 1.367 1.367 1.37 1.37 0 0 1-1.367 1.367zm0 0" fill="rgb(35.294118%,75.686275%,58.823529%)"/><path d="M7.949 10.465l2.098 2.133V1.367A1.37 1.37 0 0 1 11.418 0a1.37 1.37 0 0 1 1.367 1.367v11.164l2.102-2.137a1.37 1.37 0 0 1 1.934-.012c.539.527.543 1.395.012 1.934l-3.035 3.086a3.37 3.37 0 0 1-2.414 1.012c-.91.004-1.781-.363-2.414-1.012L6 12.383c-.531-.539-.523-1.402.016-1.934s1.402-.523 1.934.016zm0 0" fill="rgb(96.862745%,25.490196%,25.490196%)"/></svg>