<svg xmlns="http://www.w3.org/2000/svg" xmlns:xlink="http://www.w3.org/1999/xlink" width="35" height="35" viewBox="0 0 35 35" xmlns:v="https://vecta.io/nano"><path d="M8.41 33.633A1.37 1.37 0 0 1 7.043 35h-.207c-3.02-.004-5.465-2.449-5.469-5.469V14.355a1.37 1.37 0 0 1 1.367-1.367 1.37 1.37 0 0 1 1.367 1.367v15.176c.004 1.512 1.227 2.734 2.734 2.734h.207a1.37 1.37 0 0 1 1.367 1.367zM30.898 0H4.102C1.84 0 0 1.84 0 4.102v4.102A1.37 1.37 0 0 0 1.367 9.57h29.531v4.035a1.37 1.37 0 0 0 1.367 1.367 1.37 1.37 0 0 0 1.367-1.367V9.57c.758 0 1.367-.613 1.367-1.367V4.102A4.11 4.11 0 0 0 30.898 0zm1.367 6.836H2.734V4.102a1.37 1.37 0 0 1 1.367-1.367h26.797a1.37 1.37 0 0 1 1.367 1.367zm-11.758 8.203a1.37 1.37 0 0 0 1.367-1.367 1.37 1.37 0 0 0-1.367-1.367h-6.152a1.37 1.37 0 0 0-1.367 1.367 1.37 1.37 0 0 0 1.367 1.367zm0 0" fill="rgb(46.27451%,67.843137%,100%)"/><g fill="rgb(96.862745%,25.490196%,25.490196%)"><path d="M29.531 17.57H15.859c-3.02.004-5.465 2.449-5.469 5.465v6.496c.004 3.02 2.449 5.465 5.469 5.469h13.672c3.02-.004 5.465-2.449 5.469-5.469v-6.496c-.004-3.016-2.449-5.465-5.469-5.465zm2.734 11.961c0 1.508-1.223 2.734-2.734 2.734H15.859c-1.508 0-2.73-1.223-2.734-2.734v-6.492c.004-1.512 1.227-2.734 2.734-2.734h13.672c1.512 0 2.734 1.223 2.734 2.734v6.496zm-9.57-.34c1.508 0 2.734-1.285 2.734-2.871s-1.223-2.871-2.734-2.871-2.734 1.285-2.734 2.871 1.223 2.871 2.734 2.871zm0 0"/><use xlink:href="#B"/><use xlink:href="#B" x="-12.305"/></g><defs ><path id="B" d="M28.848 27.719a1.37 1.37 0 0 0 1.367-1.367 1.37 1.37 0 0 0-1.367-1.367 1.37 1.37 0 0 0-1.367 1.367 1.37 1.37 0 0 0 1.367 1.367zm0 0"/></defs></svg>