<?xml version="1.0" encoding="utf-8"?>
<!-- Svg Vector Icons : http://www.onlinewebfonts.com/icon -->
<!DOCTYPE svg PUBLIC "-//W3C//DTD SVG 1.1//EN" "http://www.w3.org/Graphics/SVG/1.1/DTD/svg11.dtd">
<svg version="1.1" xmlns="http://www.w3.org/2000/svg" xmlns:xlink="http://www.w3.org/1999/xlink" x="0px" y="0px" viewBox="0 0 1000 1000" enable-background="new 0 0 1000 1000" xml:space="preserve">
<metadata> Svg Vector Icons : http://www.onlinewebfonts.com/icon </metadata>
<g><g style="fill: rgb(236, 236, 236);" transform="translate(0.000000,511.000000) scale(0.100000,-0.100000)"><path d="M765.4,4697.1c-177.1-172.5-335.9-347.4-354.3-388.8c-78.2-165.6,78.2-329,246.1-255.4c39.1,16.1,216.3,174.8,391.1,352c299.1,303.7,315.2,326.7,315.2,414.1c0,119.6-71.3,190.9-193.2,190.9C1089.8,5010,1059.9,4987,765.4,4697.1z"/><path d="M2796.7,4658c-306-303.7-352-361.2-352-423.3c0-110.4,87.4-200.1,193.2-200.1c80.5,0,110.4,25.3,441.7,356.6c310.6,312.9,354.3,365.8,354.3,432.5c0,103.5-87.4,186.3-200.1,186.3C3153.3,5010,3125.7,4987,2796.7,4658z"/><path d="M4878.7,4694.8c-177.1-174.8-338.2-349.7-354.3-391.1c-46-103.5-4.6-209.3,98.9-250.7c117.3-50.6,188.6-4.6,545.2,358.9c287.6,289.9,312.9,324.4,312.9,400.3c0,115-82.8,197.8-197.8,197.8C5207.6,5010,5173.1,4982.4,4878.7,4694.8z"/><path d="M6914.6,4658c-306-303.7-352-361.2-352-423.3c0-110.4,87.4-200.1,193.2-200.1c80.5,0,110.4,25.3,444,361.2c358.9,358.9,358.9,358.9,345.1,446.3c-18.4,108.1-87.4,167.9-195.5,167.9C7273.5,5010,7236.6,4982.4,6914.6,4658z"/><path d="M8982.7,4658c-319.8-319.8-349.7-356.6-349.7-432.5c0-138,133.4-227.7,260-172.5c94.3,41.4,706.2,657.9,708.5,717.7c9.2,149.5-59.8,239.2-184,239.2C9341.6,5010,9304.8,4982.4,8982.7,4658z"/><path d="M758.5,3521.6c-177.1-174.8-333.6-349.7-352-391.1c-46-103.5-4.6-209.3,98.9-250.7c117.3-50.6,188.6-4.6,545.2,358.9c294.5,299.1,312.9,322.1,312.9,407.2c0,119.6-73.6,190.9-195.5,190.9C1085.2,3836.8,1059.9,3816.1,758.5,3521.6z"/><path d="M2796.7,3484.8c-368.1-368.1-391.1-404.9-326.7-524.5c29.9-59.8,144.9-108.1,216.3-96.6c29.9,6.9,207,165.6,400.3,361.2c303.7,306,347.4,361.2,347.4,425.6c0,103.5-87.4,186.3-200.1,186.3C3153.3,3836.8,3125.7,3813.7,2796.7,3484.8z"/><path d="M4876.4,3521.6c-349.7-345.1-398-418.7-356.6-536c27.6-80.5,147.2-147.2,218.5-124.2c23,9.2,200.1,172.5,393.3,363.5c322.1,319.8,349.7,354.3,349.7,430.2c0,110.4-75.9,181.7-195.5,181.7C5203,3836.8,5177.7,3816.1,4876.4,3521.6z"/><path d="M6914.6,3484.8c-306-303.7-352-361.2-352-423.3c0-110.4,85.1-195.5,195.5-195.5c82.8,0,105.8,18.4,444,358.9c356.6,356.6,356.6,356.6,342.8,444c-18.4,108.1-87.4,167.9-195.5,167.9C7273.5,3836.8,7236.6,3809.1,6914.6,3484.8z"/><path d="M8982.7,3484.8C8662.9,3165,8633,3128.2,8633,3052.3c0-131.1,128.8-223.1,248.4-179.4c82.8,32.2,667.1,611.9,708.5,704c55.2,126.5-34.5,259.9-172.5,259.9C9341.6,3836.8,9304.8,3809.1,8982.7,3484.8z"/><path d="M747,2311.6c-335.9-335.9-354.3-358.9-354.3-441.7c0-110.4,85.1-195.5,195.5-195.5c62.1,0,119.6,46,423.3,352c329,329,352,356.6,352,437.1c0,112.7-82.8,200.1-186.3,200.1C1110.5,2663.5,1057.6,2619.8,747,2311.6z"/><path d="M3123.4,2619.8c-124.2-78.2-651-630.3-669.4-701.7c-32.2-133.4,101.2-266.9,234.6-234.6c41.4,11.5,179.4,128.8,372.7,319.8c402.6,395.7,434.8,462.4,306,593.5C3289.1,2675,3220,2681.9,3123.4,2619.8z"/><path d="M4867.2,2311.6c-335.9-333.6-361.2-363.5-361.2-444c0-105.8,89.7-193.2,200.1-193.2c62.1,0,119.6,46,423.3,352c324.4,322.1,352,358.9,352,434.8c0,108.1-59.8,177.1-167.9,195.5C5226,2670.4,5226,2670.4,4867.2,2311.6z"/><path d="M7241.2,2619.8c-36.8-23-207-181.7-372.7-354.3c-319.8-324.4-338.2-356.6-280.7-485.4c32.2-71.3,138-115,220.9-94.3c71.3,16.1,657.9,582,710.8,683.2c48.3,94.3,39.1,151.8-34.5,227.7C7406.9,2675,7337.9,2681.9,7241.2,2619.8z"/><path d="M8985,2311.6c-329-329-352-356.6-352-437.1c0-112.7,82.8-200.1,186.3-200.1c64.4,0,119.6,43.7,425.6,347.4c195.5,193.2,354.3,370.4,361.2,400.3c11.5,71.3-36.8,186.3-96.6,216.2C9389.9,2702.6,9353.1,2679.6,8985,2311.6z"/><path d="M751.6,1142.9C556.1,949.7,397.3,772.5,390.5,742.6c-11.5-71.3,36.8-186.3,96.6-216.2C606.7,462,643.5,485,1011.6,853c329,329,352,356.6,352,437.1c0,112.7-82.8,200.1-186.3,200.1C1112.8,1490.3,1057.6,1446.6,751.6,1142.9z"/><path d="M3123.4,1446.6c-124.2-78.2-651-630.3-669.4-701.6c-32.2-133.4,101.2-266.9,234.6-234.7c89.7,23,713.1,644.1,733.8,733.8c32.2,121.9-66.7,246.2-190.9,246.2C3210.8,1490.3,3162.5,1469.6,3123.4,1446.6z"/><path d="M4862.6,1136C4531.3,804.7,4506,774.8,4506,694.3c0-105.8,89.7-193.2,200.1-193.2c62.1,0,119.6,46,423.3,352c329,329,352,356.6,352,437.1c0,112.7-82.8,200.1-186.3,200.1C5228.3,1490.3,5175.4,1446.6,4862.6,1136z"/><path d="M6914.6,1138.3c-310.6-310.6-352-361.2-352-427.9c0-52.9,20.7-94.3,66.7-142.6c124.2-124.2,156.4-108.1,559,296.8c404.9,402.6,421,434.8,296.7,559c-48.3,46-89.7,66.7-142.6,66.7C7275.8,1490.3,7225.1,1448.9,6914.6,1138.3z"/><path d="M8985,1138.3c-329-329-352-356.6-352-437.1c0-112.7,82.8-200.1,186.3-200.1c66.7,0,119.6,43.7,430.2,352c335.9,335.9,354.3,358.9,354.3,441.7c0,110.4-85.1,195.5-195.5,195.5C9346.2,1490.3,9288.7,1444.3,8985,1138.3z"/><path d="M744.7-635.4C404.2-973.5,388.1-994.2,390.5-1077c2.3-108.1,89.7-193.3,197.8-193.3c62.1,0,119.6,46,423.3,352c329,329,352,356.6,352,437.1c0,112.7-82.8,200.1-186.3,200.1C1110.5-281.1,1057.6-324.8,744.7-635.4z"/><path d="M3123.4-324.8c-124.2-78.2-651-630.3-669.4-701.6c-32.2-133.4,101.2-266.9,234.6-234.6c41.4,11.5,179.4,128.8,372.7,319.8c402.6,395.7,434.8,462.4,306,593.5C3289.1-269.6,3220-262.7,3123.4-324.8z"/><path d="M4867.2-633C4531.3-966.6,4506-996.5,4506-1077c0-105.8,89.7-193.3,200.1-193.3c62.1,0,119.6,46,423.3,352c324.4,322.1,352,358.9,352,434.8c0,108.1-59.8,177.1-167.9,195.5C5226-274.2,5226-274.2,4867.2-633z"/><path d="M7241.2-324.8c-119.6-73.6-651-630.3-667.1-699.3c-36.8-140.3,94.3-271.4,234.7-234.7c71.3,16.1,657.9,582,710.8,683.3c48.3,94.3,39.1,151.8-34.5,227.7C7406.9-269.6,7337.9-262.7,7241.2-324.8z"/><path d="M8985-633c-329-329-352-356.6-352-437.1c0-112.7,82.8-200.1,186.3-200.1c64.4,0,119.6,43.7,425.6,347.4c195.5,193.2,354.3,370.4,361.2,400.3c11.5,71.3-36.8,186.3-96.6,216.3C9389.9-242,9353.1-265,8985-633z"/><path d="M747-1806.3c-335.9-335.9-354.3-358.9-354.3-441.7c0-110.4,85.1-195.5,195.5-195.5c62.1,0,119.6,46,423.3,352c329,329,352,356.6,352,437.1c0,112.7-82.8,200.1-186.3,200.1C1110.5-1454.3,1057.6-1498,747-1806.3z"/><path d="M2810.5-1792.5c-225.4-225.4-345.1-363.5-356.6-407.2c-32.2-133.4,101.2-266.8,234.6-234.6c89.7,23,713.1,644.1,733.8,733.8c20.7,82.8-23,188.6-94.3,220.9C3197-1419.8,3167.1-1438.2,2810.5-1792.5z"/><path d="M4862.6-1808.6c-331.3-331.3-356.6-361.2-356.6-441.7c0-105.8,89.7-193.3,200.1-193.3c62.1,0,119.6,46,423.3,352c329,329,352,356.6,352,437.1c0,112.7-82.8,200.1-186.3,200.1C5228.3-1454.3,5175.4-1498,4862.6-1808.6z"/><path d="M6914.6-1806.3c-310.6-310.6-352-361.2-352-427.9c0-52.9,20.7-94.3,66.7-142.6c124.2-124.2,156.4-108.1,559,296.7c404.9,402.6,421,434.8,296.7,559c-48.3,46-89.7,66.7-142.6,66.7C7275.8-1454.3,7225.1-1495.7,6914.6-1806.3z"/><path d="M8985-1806.3c-324.4-322.1-352-358.9-352-434.8c0-108.1,59.8-177.1,167.9-195.5c87.4-13.8,87.4-13.8,444,342.8c340.5,338.2,358.9,361.2,358.9,444c0,110.4-85.1,195.5-195.5,195.5C9346.2-1454.3,9288.7-1500.3,8985-1806.3z"/><path d="M1099-2659.8c-89.7-41.4-669.4-628-699.3-708.5c-46-119.6,48.3-248.5,179.4-248.5c75.9,0,112.7,27.6,434.8,352c319.8,319.8,349.7,356.6,349.7,432.5C1363.6-2692,1225.5-2604.6,1099-2659.8z"/><path d="M3190.1-2646c-25.3-4.6-204.7-165.6-395.7-358.9c-306-306-349.7-361.2-349.7-425.6c0-103.5,87.4-186.3,200.1-186.3c80.5,0,108.1,23,437.1,352c301.4,301.4,352,361.2,352,423.3C3434-2712.7,3325.8-2625.3,3190.1-2646z"/><path d="M5216.8-2659.8c-89.7-41.4-669.4-628-699.3-708.5c-46-119.6,48.3-248.5,179.4-248.5c75.9,0,112.7,27.6,434.8,352c319.8,319.8,349.7,356.6,349.7,432.5C5481.4-2692,5343.4-2604.6,5216.8-2659.8z"/><path d="M7308-2646c-25.3-4.6-204.8-165.6-395.7-358.9c-305.9-306-349.7-361.2-349.7-425.6c0-103.5,87.4-186.3,200.1-186.3c80.5,0,108.1,23,437.1,352c301.3,301.4,352,361.2,352,423.3C7551.8-2712.7,7443.7-2625.3,7308-2646z"/><path d="M9334.7-2659.8c-36.8-18.4-211.7-174.8-384.2-352c-301.3-303.7-317.5-326.7-317.5-414.1c0-119.6,71.3-190.9,193.2-190.9c80.5,0,110.4,23,404.9,312.9c177.1,172.5,335.9,347.4,354.3,388.8c50.6,105.8,11.5,211.6-92,255.3C9403.7-2623,9419.8-2623,9334.7-2659.8z"/><path d="M1099-3833c-89.7-41.4-669.4-628-699.3-708.5c-46-119.6,48.3-248.4,179.4-248.4c75.9,0,112.7,27.6,434.8,352c319.8,319.8,349.7,356.6,349.7,432.5C1363.6-3865.2,1225.5-3777.8,1099-3833z"/><path d="M3169.4-3821.5c-25.3-11.5-200.1-177.1-388.8-368.1c-340.5-345.1-342.8-345.1-329-432.5c18.4-108.1,87.4-167.9,195.5-167.9c75.9,0,112.7,27.6,434.8,352c306,303.7,352,361.2,352,423.3C3434-3881.3,3284.4-3773.2,3169.4-3821.5z"/><path d="M5216.8-3826.1c-73.6-41.4-655.6-623.5-692.4-694.7c-64.4-119.6,32.2-269.2,172.5-269.2c75.9,0,112.7,27.6,434.8,352c319.8,319.8,349.7,356.6,349.7,432.5C5481.4-3872.1,5325-3766.3,5216.8-3826.1z"/><path d="M7287.3-3821.5c-25.3-11.5-197.8-174.8-384.2-363.5c-296.7-299.1-340.5-354.3-340.5-418.7c0-103.5,87.4-186.3,200.1-186.3c80.5,0,108.1,23,437.1,352c306,303.7,352,361.2,352,423.3C7551.8-3881.3,7402.3-3773.2,7287.3-3821.5z"/><path d="M9334.7-3833c-36.8-18.4-211.7-174.8-384.2-352c-301.3-303.7-317.5-326.7-317.5-414.1c0-117.3,71.3-190.9,186.3-190.9c71.3,0,112.7,34.5,425.6,352c191,190.9,354.3,368.1,361.2,388.8c25.3,73.6-32.2,181.7-112.7,216.2C9403.7-3796.2,9419.8-3796.2,9334.7-3833z"/></g></g>
</svg>