<svg width="40" height="40" viewBox="0 0 40 40" fill="none" xmlns="http://www.w3.org/2000/svg">
<circle cx="20" cy="20" r="20" fill="white"/>
<path d="M20 10C14.48 10 10 14.48 10 20C10 25.52 14.48 30 20 30C25.52 30 30 25.52 30 20C30 14.48 25.52 10 20 10ZM15.07 26.28C15.5 25.38 18.12 24.5 20 24.5C21.88 24.5 24.51 25.38 24.93 26.28C23.57 27.36 21.86 28 20 28C18.14 28 16.43 27.36 15.07 26.28ZM26.36 24.83C24.93 23.09 21.46 22.5 20 22.5C18.54 22.5 15.07 23.09 13.64 24.83C12.62 23.49 12 21.82 12 20C12 15.59 15.59 12 20 12C24.41 12 28 15.59 28 20C28 21.82 27.38 23.49 26.36 24.83ZM20 14C18.06 14 16.5 15.56 16.5 17.5C16.5 19.44 18.06 21 20 21C21.94 21 23.5 19.44 23.5 17.5C23.5 15.56 21.94 14 20 14ZM20 19C19.17 19 18.5 18.33 18.5 17.5C18.5 16.67 19.17 16 20 16C20.83 16 21.5 16.67 21.5 17.5C21.5 18.33 20.83 19 20 19Z" fill="#4680FF"/>
</svg>
